<?xml version="1.0" encoding="utf-8"?>
<!-- Generator: Adobe Illustrator 19.0.0, SVG Export Plug-In . SVG Version: 6.00 Build 0)  -->
<svg version="1.1" id="Layer_1" xmlns="http://www.w3.org/2000/svg" xmlns:xlink="http://www.w3.org/1999/xlink" x="0px" y="0px"
	 viewBox="0 0 960 560" style="enable-background:new 0 0 960 560;" xml:space="preserve">
<style type="text/css">
	.st0{fill:#FEFEFE;}
</style>
<g>
	<path id="XMLID_1_" class="st0" d="M480.9,340.5c-13.2,0-26.3,0-39.5,0c-2.4,0-4,0.1-3.9-3.3c0.3-15.7,0.8-31.3,0.1-47
		c-0.7-14.7,5-26.5,14.1-37.2c7.5-8.8,16.5-15.9,26.3-22c1.6-1,2.9-1.9,5-0.6c15.6,9.8,29.4,21.3,37.6,38.3c2.4,5,3.8,10.3,3.9,15.9
		c0.1,2-0.5,3.5-2.8,2.9c-2.4-0.6-6.8,2-7.1-2c-1-14-9.2-23.5-18.3-32.7c-3.9-3.9-8.3-7.1-12.8-10.3c-1.4-1-2.5-1.8-4.4-0.5
		c-11.9,8.3-22.5,17.7-28.8,31.1c-1.8,3.8-2.8,7.8-2.8,12c0.1,13.5,0.1,27,0,40.5c0,3.5,0.5,5,4.6,4.9c19.3-0.2,38.7-0.2,58,0
		c3.3,0,4.8-0.7,4.6-4.3c-0.3-4.8-0.2-9.7,0-14.5c0.1-3-0.7-4.1-3.8-4c-8.7,0.2-17.3-0.2-26,0.2c-4.6,0.2-3.7-2.5-3.7-5
		c0-2.5-1-5.1,3.6-5c15.3,0.3,30.7,0,46,0.2c3.4,0,4.2-0.7,4.5-4.3c2.2-29.1-13.4-48.9-35.1-64.4c-22.9-16.3-15-16-38.1-0.1
		c-14.6,10-26.1,23.2-32.3,40.3c-1.8,4.9-2.7,9.9-2.7,15.1c0.1,21.8,0,43.7,0.1,65.5c0,3.9,0.2,6.1-5.2,6.2c-6,0.1-4.9-3.1-4.9-6.5
		c0-19.3,0.6-38.7-0.2-58c-0.8-20.2,6.3-37.1,19-52.1c11.9-14,26.7-24.4,42.9-32.9c1.4-0.7,2.5-1.1,4.1-0.2
		c23.2,12.3,43.5,27.7,55.6,51.9c4.4,8.8,6.7,18,6.6,27.9c-0.1,21.7-0.2,43.3,0.1,65c0.1,4.3-1.6,4.7-5.1,4.7
		c-3.5,0-5.3-0.3-5.1-4.7c0.4-13.2-0.2-26.3,0.3-39.5c0.2-5-2.4-4.2-5.5-4.3c-3.4-0.1-5.6,0-5.3,4.6c0.4,7.8-0.1,15.7,0.2,23.5
		c0.1,3.7-0.8,4.9-4.7,4.8C506.9,340.4,493.9,340.5,480.9,340.5z"/>
</g>
</svg>
